IKResults
version=1
nRows=14
nColumns=40
inDegrees=yes

Units are S.I. units (second, meters, Newtons, ...)
Angles are in degrees.

endheader
time	pelvis_tilt	pelvis_list	pelvis_rotation	pelvis_tx	pelvis_ty	pelvis_tz	hip_flexion_r	hip_adduction_r	hip_rotation_r	knee_angle_r	knee_angle_r_beta	ankle_angle_r	subtalar_angle_r	mtp_angle_r	hip_flexion_l	hip_adduction_l	hip_rotation_l	knee_angle_l	knee_angle_l_beta	ankle_angle_l	subtalar_angle_l	mtp_angle_l	lumbar_extension	lumbar_bending	lumbar_rotation	arm_flex_r	arm_add_r	arm_rot_r	elbow_flex_r	pro_sup_r	wrist_flex_r	wrist_dev_r	arm_flex_l	arm_add_l	arm_rot_l	elbow_flex_l	pro_sup_l	wrist_flex_l	wrist_dev_l
      1.52000000	     17.32045864	     -2.82699544	      2.71745200	      0.23210054	      0.94711149	      1.41527977	      5.72635220	      1.91701512	     -7.91569425	    -28.84792614	     -0.50349129	      2.50987427	     -8.26068774	      9.35519289	    -25.18569836	      0.63122070	     12.55065437	    -11.69596573	     -0.20413311	     13.67234691	     -0.29249795	     -5.31425540	    -24.05169979	      2.96689365	     -4.45543211	     -9.68069228	     -9.60001174	      0.00524810	     20.92635717	     89.95437384	      0.00000000	      0.00000000	     11.32291488	     11.51332604	      6.91486697	     39.67236978	     89.95437384	      0.00000000	      0.00000000
      1.53000000	     16.68907303	     -2.65729305	      2.55977294	      0.24126886	      0.94485145	      1.41534468	      6.76934677	      1.64433172	     -8.39342403	    -26.24733413	     -0.45810240	      1.67258797	     -6.84009521	      9.02069998	    -24.95248284	      0.36956816	     12.45426744	    -12.05593952	     -0.21041584	     14.17663043	     -0.06076536	     -5.27266108	    -23.50811035	      2.77657480	     -4.52618865	    -10.04321191	     -9.58635654	     -0.04539742	     20.90972850	     89.95437384	      0.00000000	      0.00000000	     11.61343255	     11.76425147	      6.77710297	     40.83253124	     89.95437384	      0.00000000	      0.00000000
      1.54000000	     17.05997831	     -3.19881429	      3.23393861	      0.25139107	      0.94410132	      1.41503496	      6.11557587	      2.10336629	    -10.54979200	    -22.83495526	     -0.39854515	      1.17240660	     -4.34317795	      7.62458007	    -25.80243022	      1.23769651	     11.75239721	    -12.44546021	     -0.21721426	     14.78926581	      0.75976778	     -5.32433712	    -23.90827264	      3.59098442	     -4.91733056	    -10.38387448	     -9.52923354	     -0.33766725	     20.77993846	     89.95437384	      0.00000000	      0.00000000	     11.85406962	     11.95552408	      6.70062120	     42.12581597	     89.95437384	      0.00000000	      0.00000000
      1.55000000	     16.98302471	     -3.01424996	      3.59715883	      0.26139669	      0.94251462	      1.41450347	      6.33216216	      1.47645081	    -13.50313634	    -20.27086045	     -0.35379326	     -0.23795392	     -1.59241861	     -8.95494493	    -26.35203440	      1.10405337	     10.59001989	    -12.53016622	     -0.21869266	     15.12174812	      1.79725448	     -5.78772882	    -23.85148552	      3.57633216	     -5.38467534	    -10.73843306	     -9.48821902	     -0.52116485	     20.75573386	     89.95437384	      0.00000000	      0.00000000	     12.08759498	     12.24223468	      6.49555877	     43.22568554	     89.95437384	      0.00000000	      0.00000000
      1.56000000	     16.90088710	     -3.20789081	      3.91025739	      0.27151374	      0.94083595	      1.41467200	      6.52020210	      1.54530765	    -15.88680838	    -18.06586007	     -0.31530874	      0.61782704	      1.81242378	     -9.95595969	    -26.67273854	      1.54980881	     10.37860984	    -13.05920945	     -0.22792620	     15.49190250	      1.55494131	     -6.09551307	    -23.78180033	      3.87192017	     -5.63561033	    -11.07448691	     -9.42977634	     -0.75172704	     20.73173180	     89.95437384	      0.00000000	      0.00000000	     12.22277195	     12.45403667	      6.52736311	     44.40696890	     89.95437384	      0.00000000	      0.00000000
      1.57000000	     16.86958258	     -3.38251230	      4.34236069	      0.28194113	      0.93915027	      1.41467705	      6.78139550	      1.53093913	    -18.62656094	    -16.50658105	     -0.28809419	      1.45468004	      5.43948689	    -11.80625162	    -27.05694269	      2.01908561	     10.04900193	    -13.58144050	     -0.23704085	     15.92028415	      1.60471117	     -6.52327726	    -23.69032036	      4.21856035	     -5.99084029	    -11.43007436	     -9.38176907	     -0.98625557	     20.68544088	     89.95437384	      0.00000000	      0.00000000	     12.41466744	     12.67591419	      6.46390363	     45.28330599	     89.95437384	      0.00000000	      0.00000000
      1.58000000	     16.80226731	     -3.71413941	      4.61470662	      0.29226236	      0.93742574	      1.41530326	      7.03127861	      2.00221806	    -20.08820516	    -15.02421429	     -0.26222201	      1.97408548	      6.84593656	    -12.21403273	    -27.38128108	      2.61097760	      9.78884645	    -14.17494099	     -0.24739939	     16.34717966	      1.81546097	     -6.62434740	    -23.60733886	      4.62404576	     -6.11737113	    -11.69886583	     -9.31759349	     -1.16312141	     20.58719956	     89.95437384	      0.00000000	      0.00000000	     12.56779313	     12.83961350	      6.55854567	     46.19178584	     89.95437384	      0.00000000	      0.00000000
      1.59000000	     16.51650780	     -3.69097592	      4.39886830	      0.30228135	      0.93541016	      1.41636960	      7.89106503	      2.08146546	    -20.49765256	    -14.67253451	     -0.25608404	      2.21629832	      6.81402321	    -12.11822898	    -27.58415926	      2.59463582	      9.65363599	    -14.55963741	     -0.25411361	     16.33220861	      1.79686569	     -6.57380098	    -23.37470498	      4.48707796	     -5.86544399	    -11.98533575	     -9.26888896	     -1.13614985	     20.56862876	     89.95437384	      0.00000000	      0.00000000	     12.90890834	     12.94362582	      6.63582678	     46.76675527	     89.95437384	      0.00000000	      0.00000000
      1.60000000	     16.62152632	     -4.17875172	      5.29581713	      0.31327055	      0.93382238	      1.41603221	      7.86896390	      2.43892386	    -23.11248509	    -14.02225294	     -0.24473448	      2.67103138	      9.88988210	    -13.29397763	    -27.93720850	      3.65907737	      8.99056150	    -15.41825666	     -0.26909934	     16.84521589	      1.67972098	     -7.04185946	    -23.33546965	      5.31765412	     -6.52811090	    -12.24146506	     -9.26914436	     -1.35497239	     20.52969812	     89.95437384	      0.00000000	      0.00000000	     12.83848492	     13.14445473	      6.60788107	     47.69369108	     89.95437384	      0.00000000	      0.00000000
      1.61000000	     16.37109901	     -4.07595569	      5.28506379	      0.32388176	      0.93191812	      1.41657529	      8.46794157	      2.41201336	    -22.89249015	    -14.19807139	     -0.24780309	      2.63869900	      9.65858985	    -13.09109406	    -28.09731582	      3.66741123	      8.77415260	    -15.96880763	     -0.27870827	     16.60852529	      1.65224481	     -6.94599239	    -23.06004849	      5.20890530	     -6.48681756	    -12.56120385	     -9.25709743	     -1.33410029	     20.58778226	     89.95437384	      0.00000000	      0.00000000	     13.03681697	     13.19348984	      6.67905791	     48.05037198	     89.95437384	      0.00000000	      0.00000000
      1.62000000	     16.36473959	     -4.31317269	      5.56992954	      0.33462653	      0.93037835	      1.41699232	      8.54962068	      2.81257257	    -22.69285774	    -14.29210542	     -0.24944430	      2.89857523	      9.54866011	    -13.02351880	    -28.37230206	      4.13320268	      8.06717890	    -16.86234974	     -0.29430352	     17.00900687	      1.89620472	     -6.91841333	    -23.01827139	      5.54944105	     -6.60306725	    -12.57401286	     -9.24580009	     -1.29807136	     20.21581505	     89.95437384	      0.00000000	      0.00000000	     13.10712469	     13.28259875	      6.69872437	     48.61725154	     89.95437384	      0.00000000	      0.00000000
      1.63000000	     16.29357741	     -4.41247112	      6.21140572	      0.34564704	      0.92885185	      1.41691415	      8.57127633	      3.02580191	    -22.57100332	    -14.61432130	     -0.25506802	      2.81121521	      8.29429677	    -12.75722683	    -28.48278620	      4.61795740	      7.00492938	    -17.81170451	     -0.31087289	     17.23158362	      2.72884434	     -6.87892762	    -22.82915223	      5.87415462	     -7.20768990	    -12.66512916	     -9.23298329	     -1.01294756	     19.98809395	     89.95437384	      0.00000000	      0.00000000	     12.97554089	     13.40027374	      6.89124080	     49.14602923	     89.95437384	      0.00000000	      0.00000000
      1.64000000	     16.06733311	     -4.29779323	      6.34799184	      0.35659701	      0.92731577	      1.41725152	      8.77962683	      3.18326906	    -20.98205613	    -15.33291414	     -0.26760984	      2.72395579	      5.46366185	    -12.15852397	    -28.68461710	      4.46770902	      5.52363054	    -18.37742260	     -0.32074653	     17.22418533	      4.59893190	     -6.86791215	    -22.55783665	      5.80746957	     -7.36999545	    -12.71087181	     -9.24331632	     -0.77082890	     19.74350485	     89.95437384	      0.00000000	      0.00000000	     12.95742420	     13.42427105	      7.05042167	     49.39842089	     89.95437384	      0.00000000	      0.00000000
      1.65000000	     15.93567570	     -4.29929825	      6.55703576	      0.36818228	      0.92586187	      1.41768089	      8.88128526	      3.29374399	    -20.33374219	    -16.48907096	     -0.28778858	      2.88941393	      4.84794289	    -11.87352783	    -28.83707370	      4.68348917	      5.07746034	    -19.24081088	     -0.33581550	     16.82467794	      4.56707772	     -6.73478961	    -22.29244579	      5.88155207	     -7.48248362	    -12.90022286	     -9.25193424	     -0.82297665	     19.73402882	     89.95437384	      0.00000000	      0.00000000	     12.86893541	     13.41405468	      7.13157600	     49.54414668	     89.95437384	      0.00000000	      0.00000000
